<svg fill="#000000" xmlns="http://www.w3.org/2000/svg"  viewBox="0 0 50 50" width="50px" height="50px"><path d="M32.727,19.341l-7.068-7.068c-0.364-0.364-0.954-0.364-1.318,0l-7.068,7.068c-0.364,0.364-0.364,0.954,0,1.318l7.068,7.068 c0.364,0.364,0.954,0.364,1.318,0l7.068-7.068C33.091,20.295,33.091,19.705,32.727,19.341z"/><path d="M32.727,35.341l-7.068-7.068c-0.364-0.364-0.954-0.364-1.318,0l-7.068,7.068c-0.364,0.364-0.364,0.954,0,1.318l7.068,7.068 c0.364,0.364,0.954,0.364,1.318,0l7.068-7.068C33.091,36.295,33.091,35.705,32.727,35.341z"/><path d="M48.727,19.341l-7.068-7.068c-0.364-0.364-0.954-0.364-1.318,0l-7.068,7.068c-0.364,0.364-0.364,0.954,0,1.318l7.068,7.068 c0.364,0.364,0.954,0.364,1.318,0l7.068-7.068C49.091,20.295,49.091,19.705,48.727,19.341z"/><path d="M16.727,19.341l-7.068-7.068c-0.364-0.364-0.954-0.364-1.318,0l-7.068,7.068c-0.364,0.364-0.364,0.954,0,1.318l7.068,7.068 c0.364,0.364,0.954,0.364,1.318,0l7.068-7.068C17.091,20.295,17.091,19.705,16.727,19.341z"/></svg>